<?xml version="1.0" encoding="UTF-8"?>
<!DOCTYPE svg PUBLIC "-//W3C//DTD SVG 1.1//EN" "http://www.w3.org/Graphics/SVG/1.1/DTD/svg11.dtd">
<!-- Creator: CorelDRAW (Evaluation Version) -->
<svg xmlns="http://www.w3.org/2000/svg" xml:space="preserve" width="800px" height="800px" version="1.1" style="shape-rendering:geometricPrecision; text-rendering:geometricPrecision; image-rendering:optimizeQuality; fill-rule:evenodd; clip-rule:evenodd"
viewBox="0 0 800 800"
 xmlns:xlink="http://www.w3.org/1999/xlink"
 xmlns:xodm="http://www.corel.com/coreldraw/odm/2003">
 <defs>
  <style type="text/css">
   <![CDATA[
    .str0 {stroke:#186B0B;stroke-width:0.667;stroke-miterlimit:2.61313}
    .fil0 {fill:#186B0B}
   ]]>
  </style>
 </defs>
 <g id="Layer_x0020_1">
  <metadata id="CorelCorpID_0Corel-Layer"/>
  <path class="fil0 str0" d="M422.432 195.486c38.933,-16.556 71.961,-9.158 99.085,22.196 41.826,39.502 73.124,43.715 93.894,12.639 -7.411,53.938 -51.35,63.058 -131.815,27.362 13.873,32.348 19.283,54.272 16.23,65.772 -1.372,13.181 -10.388,20.014 -27.049,20.5 1.289,-18.964 -3.267,-30.258 -13.667,-33.882 -9.431,-1.88 -16.265,-6.531 -20.5,-13.952 -2.125,15.327 1.778,25.311 11.71,29.953 12.617,7.875 19.632,17.201 21.045,27.978 -4.1,39.922 -1.623,69.636 7.429,89.142 3.129,7.524 -0.247,13.67 -10.127,18.437 -32.992,3.047 -58.095,-6.302 -75.308,-28.045 0.298,-39.138 -16.094,-57.536 -49.176,-55.196 -4.219,-15.226 -19.284,-32.266 -45.197,-51.119 25.851,43.807 32.028,77.324 18.531,100.552 -33.422,1.564 -64.61,-5.625 -93.565,-21.569 24.598,24.867 78.207,40.223 160.827,46.068 16.117,15.06 12.906,35.371 -9.635,60.933 -32.904,34.838 -46.373,72.873 -40.407,114.107 -10.408,14.165 -22.666,23.023 -36.774,26.576 1.712,-3.592 3.052,-9.978 4.017,-19.159 -2.856,9.525 -7.286,16.839 -13.288,21.94l-5.727 1.092c-4.904,-22.461 -4.904,-44.938 0,-67.43 7.373,6.257 15.818,8.573 25.338,6.947 3.682,4.981 5.726,10.566 6.13,16.755 2.171,-7.632 1.33,-14.915 -2.524,-21.848 4.48,-27.263 12.346,-53.512 23.599,-78.744 -29.812,-3.606 -58.864,-0.412 -87.156,9.58 -39.233,22.519 -77.978,33.836 -116.236,33.95 2.503,4.386 5.11,8.705 7.815,12.954 55.686,87.46 153.501,145.478 264.866,145.478 173.29,0 313.769,-140.479 313.769,-313.769 0,-173.29 -140.479,-313.768 -313.769,-313.768 -34.955,0 -68.576,5.716 -99.977,16.264 -22.854,7.677 -44.532,17.913 -64.694,30.369 54.399,-11.069 115.168,9.243 182.306,60.937z"/>
  <path class="fil0 str0" d="M240.126 134.549c20.162,-12.456 41.84,-22.692 64.694,-30.369 -73.26,0.185 -133.768,32.255 -181.526,96.21 40.735,-38.47 79.679,-60.417 116.832,-65.841z"/>
  <path class="fil0 str0" d="M132.116 557.021c-21.837,0.623 -44.934,-1.659 -69.291,-6.845 24.051,13.012 49.753,19.611 77.106,19.799 -2.705,-4.249 -5.312,-8.568 -7.815,-12.954z"/>
 </g>
</svg>
