<?xml version="1.0" encoding="UTF-8"?>
<!DOCTYPE svg PUBLIC "-//W3C//DTD SVG 1.1//EN" "http://www.w3.org/Graphics/SVG/1.1/DTD/svg11.dtd">
<!-- Creator: CorelDRAW (Evaluation Version) -->
<svg xmlns="http://www.w3.org/2000/svg" xml:space="preserve" width="45px" height="45px" version="1.1" style="shape-rendering:geometricPrecision; text-rendering:geometricPrecision; image-rendering:optimizeQuality; fill-rule:evenodd; clip-rule:evenodd"
viewBox="0 0 45 45"
 xmlns:xlink="http://www.w3.org/1999/xlink"
 xmlns:xodm="http://www.corel.com/coreldraw/odm/2003">
 <defs>
  <style type="text/css">
   <![CDATA[
    .str0 {stroke:black;stroke-width:0.056;stroke-miterlimit:2.61313}
    .str1 {stroke:#186B0B;stroke-width:0.038;stroke-miterlimit:2.61313}
    .fil0 {fill:none}
    .fil1 {fill:#186B0B}
   ]]>
  </style>
 </defs>
 <g id="Layer_x0020_1">
  <metadata id="CorelCorpID_0Corel-Layer"/>
  <path class="fil0 str0" d="M16.239 36.94c0.338,-0.287 0.587,-0.698 0.747,-1.234 -0.054,0.517 -0.129,0.876 -0.226,1.078 0.794,-0.2 1.484,-0.698 2.069,-1.495 -0.336,-2.319 0.422,-4.459 2.273,-6.418 1.268,-1.438 1.448,-2.581 0.542,-3.428 -4.648,-0.329 -7.663,-1.192 -9.047,-2.591 1.629,0.897 3.383,1.301 5.263,1.213 0.76,-1.307 0.412,-3.192 -1.042,-5.656 1.458,1.06 2.305,2.019 2.542,2.875 1.861,-0.131 2.783,0.904 2.766,3.105 0.969,1.223 2.381,1.749 4.237,1.578 0.555,-0.268 0.745,-0.614 0.569,-1.037 -0.509,-1.098 -0.648,-2.769 -0.418,-5.015 -0.079,-0.606 -0.474,-1.13 -1.184,-1.573 -0.558,-0.261 -0.778,-0.823 -0.658,-1.685 0.238,0.417 0.622,0.679 1.153,0.785 0.585,0.203 0.841,0.839 0.769,1.905 0.937,-0.027 1.444,-0.411 1.521,-1.153 0.172,-0.647 -0.132,-1.88 -0.913,-3.699 4.526,2.008 6.998,1.495 7.415,-1.539m-10.855 -1.96c2.19,-0.931 4.048,-0.515 5.573,1.249 2.353,2.222 4.114,2.459 5.282,0.711m-27.682 -1.684c2.687,-3.598 6.09,-5.401 10.211,-5.412m-10.211 5.412c2.292,-2.164 4.482,-3.399 6.572,-3.704m10.255 3.428c-3.777,-2.908 -7.195,-4.05 -10.255,-3.428m-9.973 23.379c1.37,0.292 2.669,0.42 3.898,0.385m6.538 -1.909c-2.207,1.266 -4.386,1.903 -6.538,1.909m-3.898 -0.385c1.353,0.732 2.799,1.104 4.337,1.114m6.099 -2.638c1.591,-0.562 3.225,-0.742 4.902,-0.539 -0.633,1.419 -1.075,2.896 -1.327,4.429 0.217,0.39 0.264,0.8 0.142,1.229 -0.023,-0.348 -0.138,-0.662 -0.345,-0.942 -0.535,0.091 -1.011,-0.039 -1.425,-0.391 -0.276,1.265 -0.276,2.529 0,3.793m0 0l0.322 -0.062m4.863 -8.069c-1.851,1.959 -2.609,4.099 -2.273,6.418 -0.585,0.797 -1.275,1.295 -2.069,1.495 0.097,-0.202 0.172,-0.561 0.226,-1.078 -0.16,0.536 -0.409,0.947 -0.747,1.234l-0.322 0.062c-0.276,-1.264 -0.276,-2.528 0,-3.793 0.414,0.352 0.89,0.482 1.425,0.391 0.207,0.28 0.322,0.594 0.345,0.942 0.122,-0.429 0.075,-0.839 -0.142,-1.229 0.252,-1.533 0.694,-3.01 1.327,-4.429 -1.677,-0.203 -3.311,-0.023 -4.902,0.539 -2.207,1.266 -4.386,1.903 -6.538,1.909 0.14,0.247 0.287,0.49 0.439,0.729 3.132,4.92 8.635,8.183 14.899,8.183 9.747,0 17.649,-7.902 17.649,-17.649 0,-9.748 -7.902,-17.65 -17.649,-17.65 -1.966,0 -3.858,0.322 -5.624,0.915 -1.285,0.432 -2.505,1.008 -3.639,1.708 3.06,-0.622 6.478,0.52 10.255,3.428 2.19,-0.931 4.048,-0.515 5.573,1.249 2.353,2.222 4.114,2.459 5.282,0.711 -0.417,3.034 -2.889,3.547 -7.415,1.539 0.781,1.819 1.085,3.052 0.913,3.699 -0.077,0.742 -0.584,1.126 -1.521,1.153 0.072,-1.066 -0.184,-1.702 -0.769,-1.905 -0.531,-0.106 -0.915,-0.368 -1.153,-0.785 -0.12,0.862 0.1,1.424 0.658,1.685 0.71,0.443 1.105,0.967 1.184,1.573 -0.23,2.246 -0.091,3.917 0.418,5.015 0.176,0.423 -0.014,0.769 -0.569,1.037 -1.856,0.171 -3.268,-0.355 -4.237,-1.578 0.017,-2.201 -0.905,-3.236 -2.766,-3.105 -0.237,-0.856 -1.084,-1.815 -2.542,-2.875 1.454,2.464 1.802,4.349 1.042,5.656 -1.88,0.088 -3.634,-0.316 -5.263,-1.213 1.384,1.399 4.399,2.262 9.047,2.591 0.906,0.847 0.726,1.99 -0.542,3.428zm-14.167 -17.599c2.292,-2.164 4.482,-3.399 6.572,-3.704 1.134,-0.7 2.354,-1.276 3.639,-1.708 -4.121,0.011 -7.524,1.814 -10.211,5.412zm0.497 20.06c-1.229,0.035 -2.528,-0.093 -3.898,-0.385 1.353,0.732 2.799,1.104 4.337,1.114 -0.152,-0.239 -0.299,-0.482 -0.439,-0.729z"/>
  <path class="fil1 str1" d="M23.762 10.996c2.19,-0.931 4.048,-0.515 5.573,1.249 2.353,2.222 4.114,2.459 5.282,0.711 -0.417,3.034 -2.889,3.547 -7.415,1.539 0.781,1.819 1.085,3.052 0.913,3.699 -0.077,0.742 -0.584,1.126 -1.521,1.153 0.072,-1.066 -0.184,-1.702 -0.769,-1.905 -0.531,-0.106 -0.915,-0.368 -1.153,-0.785 -0.12,0.862 0.1,1.424 0.658,1.685 0.71,0.443 1.105,0.967 1.184,1.573 -0.23,2.246 -0.091,3.917 0.418,5.015 0.176,0.423 -0.014,0.769 -0.569,1.037 -1.856,0.171 -3.268,-0.355 -4.237,-1.578 0.017,-2.201 -0.905,-3.236 -2.766,-3.105 -0.237,-0.856 -1.084,-1.815 -2.542,-2.875 1.454,2.464 1.802,4.349 1.042,5.656 -1.88,0.088 -3.634,-0.316 -5.263,-1.213 1.384,1.399 4.399,2.262 9.047,2.591 0.906,0.847 0.726,1.99 -0.542,3.428 -1.851,1.959 -2.609,4.099 -2.273,6.418 -0.585,0.797 -1.275,1.295 -2.069,1.495 0.097,-0.202 0.172,-0.561 0.226,-1.078 -0.16,0.536 -0.409,0.947 -0.747,1.234l-0.322 0.062c-0.276,-1.264 -0.276,-2.528 0,-3.793 0.414,0.352 0.89,0.482 1.425,0.391 0.207,0.28 0.322,0.594 0.345,0.942 0.122,-0.429 0.075,-0.839 -0.142,-1.229 0.252,-1.533 0.694,-3.01 1.327,-4.429 -1.677,-0.203 -3.311,-0.023 -4.902,0.539 -2.207,1.266 -4.386,1.903 -6.538,1.909 0.14,0.247 0.287,0.49 0.439,0.729 3.132,4.92 8.635,8.183 14.899,8.183 9.747,0 17.649,-7.902 17.649,-17.649 0,-9.748 -7.902,-17.65 -17.649,-17.65 -1.966,0 -3.858,0.322 -5.624,0.915 -1.285,0.432 -2.505,1.008 -3.639,1.708 3.06,-0.622 6.478,0.52 10.255,3.428z"/>
  <path class="fil1 str1" d="M13.507 7.568c1.134,-0.7 2.354,-1.276 3.639,-1.708 -4.121,0.011 -7.524,1.814 -10.211,5.412 2.292,-2.164 4.482,-3.399 6.572,-3.704z"/>
  <path class="fil1 str1" d="M7.432 31.332c-1.229,0.035 -2.528,-0.093 -3.898,-0.385 1.353,0.732 2.799,1.104 4.337,1.114 -0.152,-0.239 -0.299,-0.482 -0.439,-0.729z"/>
 </g>
</svg>
